<svg xmlns="http://www.w3.org/2000/svg" viewBox="0 0 1200 630" role="img" aria-labelledby="title desc">
  <title id="title">MonsterIndex Open Graph Image</title>
  <desc id="desc">Track Monster Energy deals in real time</desc>
  <defs>
    <linearGradient id="bg" x1="0" y1="0" x2="1" y2="1">
      <stop offset="0%" stop-color="#070F12"/>
      <stop offset="45%" stop-color="#0A161A"/>
      <stop offset="100%" stop-color="#060D11"/>
    </linearGradient>
    <radialGradient id="glow" cx="0.15" cy="0.12" r="0.8">
      <stop offset="0%" stop-color="#A8FF2E" stop-opacity="0.35"/>
      <stop offset="100%" stop-color="#A8FF2E" stop-opacity="0"/>
    </radialGradient>
    <linearGradient id="claw" x1="0" y1="0" x2="0" y2="1">
      <stop offset="0%" stop-color="#D3FF52"/>
      <stop offset="100%" stop-color="#8CEB00"/>
    </linearGradient>
  </defs>

  <rect x="0" y="0" width="1200" height="630" fill="url(#bg)"/>
  <rect x="0" y="0" width="1200" height="630" fill="url(#glow)"/>

  <g transform="translate(82,90)">
    <rect x="0" y="0" width="190" height="190" rx="42" fill="#081216" stroke="#1D2E34" stroke-width="3"/>
    <path d="M36 30h34l-17 126H19z" fill="url(#claw)"/>
    <path d="M82 30h34l-13 92H69z" fill="url(#claw)"/>
    <path d="M122 30h34l17 126h-34z" fill="url(#claw)"/>
    <path d="M66 106h62l-4 22H62z" fill="#C7FF38"/>
  </g>

  <text x="310" y="194" fill="#ECF5F8" font-family="Oxanium, Rajdhani, Arial, sans-serif" font-size="98" font-weight="700" letter-spacing="1.2">MonsterIndex</text>
  <text x="310" y="258" fill="#95A8AE" font-family="Rajdhani, Arial, sans-serif" font-size="38" font-weight="600" letter-spacing="5">LIVE PRICE TRACKING</text>

  <text x="84" y="374" fill="#ECF5F8" font-family="Rajdhani, Arial, sans-serif" font-size="58" font-weight="700">
    <tspan x="84" dy="0">Compare real-time Monster deals</tspan>
    <tspan x="84" dy="64">by total and per can.</tspan>
  </text>
  <text x="84" y="500" fill="#B4C5CA" font-family="Rajdhani, Arial, sans-serif" font-size="38" font-weight="500">Open-source. Public snapshots. Search any flavor fast.</text>

  <rect x="84" y="534" width="284" height="62" rx="12" fill="#8CEB00"/>
  <text x="128" y="578" fill="#0B1201" font-family="Oxanium, Rajdhani, Arial, sans-serif" font-size="34" font-weight="700">Browse Deals</text>
</svg>
